<svg width="120" height="120" viewBox="0 0 120 120" fill="none" xmlns="http://www.w3.org/2000/svg">
<rect width="120" height="120" rx="60" fill="white"/>
<path fill-rule="evenodd" clip-rule="evenodd" d="M79.1993 56.64C79.1998 56.6001 79.2 56.5601 79.2 56.52C79.2 50.8867 74.6333 46.32 69 46.32C65.1036 46.32 61.7176 48.5047 59.9999 51.716C58.2822 48.5047 54.8961 46.3201 50.9998 46.3201C45.3665 46.3201 40.7998 50.8868 40.7998 56.5201C40.7998 56.5601 40.8 56.6001 40.8005 56.64H40.8C40.8 67.4427 55.2 76.32 60 76.32C64.8 76.32 79.2 67.4427 79.2 56.64H79.1993Z" fill="#F3463B"/>
<path fill-rule="evenodd" clip-rule="evenodd" d="M60 6C30.1766 6 6 30.1766 6 60C6 89.8234 30.1766 114 60 114C89.8234 114 114 89.8234 114 60C114 30.1766 89.8234 6 60 6ZM60 29.436C76.88 29.436 90.564 43.1199 90.564 60C90.564 76.88 76.88 90.564 60 90.564C43.1199 90.564 29.436 76.88 29.436 60C29.436 43.1199 43.1199 29.436 60 29.436ZM64.502 11.3315C64.7124 10.4013 65.6225 9.83079 66.5634 10.0388C67.5038 10.2469 68.0813 11.1467 67.8708 12.0765L66.8627 16.5322L73.0755 17.9064L74.0839 13.4507C74.2944 12.5209 75.2045 11.95 76.145 12.158C77.0858 12.3661 77.6633 13.2659 77.4528 14.196L74.7221 26.2643C74.5117 27.1945 73.6016 27.7654 72.6607 27.5574C71.7199 27.3493 71.1424 26.4495 71.3529 25.5193L72.3809 20.9775L66.1678 19.6033L65.1402 24.1452C64.9297 25.0753 64.0196 25.6459 63.0788 25.4378C62.1383 25.2298 61.5608 24.33 61.7713 23.4002L64.502 11.3315ZM46.1768 19.9755L46.1573 19.9358C44.9809 17.5437 42.2292 16.4046 39.7336 17.608C37.2376 18.8122 36.467 21.6002 37.6435 23.9923L37.663 24.0324C38.8395 26.4245 41.5908 27.5635 44.0868 26.3598C46.5827 25.156 47.353 22.3676 46.1768 19.9755ZM34.3882 25.7007L34.3687 25.6606C32.4181 21.6814 33.9805 16.893 38.3281 14.7897C42.6756 12.6864 47.3731 14.3961 49.324 18.3756L49.3435 18.4154C51.2941 22.3946 49.7317 27.183 45.3842 29.2863C41.037 31.39 36.3388 29.6799 34.3882 25.7007ZM95.8518 24.0397C95.252 23.2914 94.1818 23.1706 93.4277 23.7658L83.6448 31.4889C82.9085 32.0701 82.7903 33.1008 83.3764 33.8315C83.9621 34.5621 85.0149 34.6969 85.7513 34.1158L91.8524 29.2991L90.1134 34.4503C89.9158 35.0605 89.9317 35.6162 90.3223 36.1034C90.7128 36.5903 91.2548 36.7308 91.899 36.677L97.4286 36.1464L91.3097 40.9767C90.5734 41.5582 90.4339 42.6342 91.02 43.3648C91.6197 44.1127 92.6899 44.2335 93.444 43.6387L103.191 35.9431C103.946 35.348 104.067 34.2861 103.468 33.5379L103.231 33.2424C102.798 32.7029 102.263 32.5003 101.584 32.5817L93.646 33.5361L96.3641 26.1069C96.5719 25.5447 96.5491 24.9094 96.0888 24.3354L95.8518 24.0397ZM100.793 57.5953L107.555 52.4516C107.885 52.2009 108.283 52.0162 108.773 52.0083C109.687 51.9936 110.435 52.7386 110.451 53.6965C110.463 54.4757 110.048 54.9724 109.431 55.4056L104.031 59.2799L109.6 63.0432C110.231 63.4563 110.64 63.9621 110.652 64.6743C110.669 65.7214 109.943 66.3568 109.007 66.3719C108.539 66.3795 108.112 66.1636 107.796 65.9463L100.915 61.0235L96.4125 61.0967C95.4539 61.1122 94.6838 60.3672 94.6683 59.4099C94.6525 58.4523 95.3982 57.6829 96.3568 57.6671L100.793 57.5953ZM104.684 82.6612C104.531 82.5305 104.301 82.4217 104.105 82.3418L91.9262 77.6689C91.0613 77.3395 90.2313 77.4795 89.6913 78.1014L89.4576 78.3706C88.9176 78.9929 88.8985 79.797 89.3717 80.6119L94.1511 88.7418L85.3434 85.2529C84.4614 84.9085 83.6628 85.0463 83.1229 85.6682L82.8895 85.9374C82.3491 86.5593 82.3326 87.395 82.7888 88.1955L89.2455 99.4596C89.354 99.64 89.5138 99.8645 89.6664 99.9952C90.3777 100.603 91.4162 100.495 92.029 99.789C92.5838 99.1499 92.5398 98.3508 92.1776 97.7479L86.9388 89.1954L96.1822 92.9987C96.984 93.3327 97.7848 93.2264 98.354 92.5705L98.5293 92.3689C99.0985 91.7134 99.0693 90.8971 98.6343 90.1736L93.478 81.6623L102.774 85.5404C103.463 85.8358 104.276 85.6811 104.801 85.076C105.428 84.3528 105.412 83.2841 104.684 82.6612ZM73.45 106.273C73.6758 107.2 73.117 108.11 72.1837 108.334C71.2511 108.559 70.3347 108.003 70.109 107.077L67.1781 95.0513C66.9523 94.1242 67.5111 93.2144 68.4444 92.9897C69.377 92.7655 70.2933 93.3209 70.5191 94.2476L73.45 106.273ZM57.0338 97.4225C57.1662 96.9066 57.028 96.3686 56.7266 96.0179C55.3491 94.3883 53.4935 93.2782 51.5051 92.7748C48.2418 91.9486 45.5217 93.0441 44.7561 96.0289L44.7453 96.0718C44.0737 98.692 45.5217 100.225 48.3868 101.797C50.8313 103.125 51.3968 103.611 51.1435 104.599L51.1328 104.642C50.9453 105.372 50.1269 105.782 48.8516 105.46C47.8144 105.197 46.8708 104.569 45.9336 103.646C45.7127 103.43 45.4756 103.279 45.1511 103.196C44.2866 102.978 43.4243 103.468 43.2045 104.327C43.039 104.972 43.2908 105.516 43.6031 105.823C44.7446 107.027 46.2228 107.904 48.0597 108.37C51.1504 109.152 53.8172 107.906 54.5162 105.178L54.5274 105.136C55.2926 102.15 53.5409 100.815 50.6917 99.2701C48.3281 97.9856 47.9198 97.425 48.1346 96.587L48.1454 96.5441C48.3709 95.6636 49.33 95.3346 50.6917 95.6793C52.1613 96.0515 53.2826 96.8841 54.2133 98.0117C54.3907 98.2166 54.6547 98.4436 55.0872 98.5533C55.9516 98.7721 56.814 98.2813 57.0338 97.4225ZM27.7684 96.1939C27.0377 96.8162 25.9639 96.7352 25.3368 96.0092C24.7098 95.284 24.7918 94.2182 25.5228 93.5962L29.0243 90.6145L24.8824 85.8232L21.381 88.8048C20.6499 89.4272 19.5764 89.3454 18.949 88.6202C18.3223 87.895 18.4043 86.8291 19.135 86.2068L28.6197 78.1301C29.3505 77.5078 30.4243 77.5892 31.0513 78.3148C31.6784 79.04 31.5964 80.1058 30.8657 80.7282L27.296 83.7679L31.4378 88.5589L35.0072 85.5195C35.7379 84.8968 36.8117 84.9786 37.4388 85.7038C38.0658 86.4294 37.9838 87.4949 37.2531 88.1176L27.7684 96.1939ZM12.6101 69.7133L24.7358 68.6577C25.6908 68.5749 26.3804 67.7529 26.2973 66.7969L25.5383 58.0605C25.465 57.2154 24.7387 56.5845 23.8948 56.6579C23.051 56.7313 22.4221 57.4803 22.4958 58.3254L23.1081 65.3724L19.8434 65.6564L19.3275 59.7207C19.2541 58.876 18.5282 58.2447 17.6844 58.3182C16.8405 58.3919 16.2117 59.1409 16.285 59.9856L16.801 65.9213L13.647 66.1959L13.0444 59.26C12.9711 58.415 12.2451 57.784 11.4013 57.8575C10.5571 57.9309 9.92857 58.6799 10.0019 59.5246L10.7512 68.1502C10.8343 69.1061 11.6551 69.7964 12.6101 69.7133ZM25.9629 47.5408C25.5451 47.7449 24.9848 47.7449 24.5133 47.49C23.7276 47.0654 23.461 46.1122 23.8892 45.3327C24.1031 44.9428 24.3907 44.7441 24.6349 44.6238C25.9683 44.0047 27.0603 43.129 27.788 41.8034C28.4622 40.5753 28.3778 39.5689 27.5726 39.1338L27.5333 39.1123C26.767 38.6981 26.1176 38.9537 24.2763 40.9158C22.0605 43.2818 20.3205 44.6414 17.5903 43.1651L17.5513 43.144C15.0566 41.7952 14.4985 38.9147 16.0285 36.1273C16.938 34.4702 18.1621 33.2614 19.6221 32.458C20.0005 32.2328 20.5947 32.1246 21.1838 32.4429C21.9696 32.868 22.2362 33.8211 21.808 34.6006C21.6474 34.8931 21.4407 35.0846 21.1748 35.2443C20.0399 35.9196 19.1921 36.6747 18.6783 37.6107C18.047 38.7607 18.2454 39.6516 18.9132 40.0128L18.9525 40.034C19.8562 40.5227 20.4717 40.097 22.3758 38.0676C24.6219 35.6926 26.4798 34.6747 28.876 35.9705L28.9154 35.9919C31.6453 37.4682 32.0432 40.3627 30.4273 43.3062C29.4428 45.0997 27.8973 46.6153 25.9629 47.5408Z" fill="#0333FF"/>
</svg>
