<svg width="40" height="36" viewBox="0 0 40 36" fill="none" xmlns="http://www.w3.org/2000/svg">
<path fill-rule="evenodd" clip-rule="evenodd" d="M16 0H6V2H4V4H2V6H0V22H2V24H4V26H6V28H8V30H10V32H12V34H14V36H26V34H28V32H30V30H32V28H34V26H36V24H38V22H40V7H38V4H36V2H34V0H24V2H22V4H18V2H16V0ZM16 2V4H18V6H22V4H24V2H34V4H36V7H38V22H36V24H34V26H32V28H30V30H28V32H26V34H14V32H12V30H10V28H8V26H6V24H4V22H2V6H4V4H6V2H16ZM8 9H10V11H8V9ZM12 11H10V13H8V15H10V13H12V15H14V13H12V11ZM12 11V9H14V11H12ZM26 9H28V11H26V9ZM30 11H28V13H26V15H28V13H30V15H32V13H30V11ZM30 11V9H32V11H30ZM25 19H15V21H13V23H11V25H13V23H15V21H25V23H27V25H29V23H27V21H25V19Z" fill="white"/>
</svg>
