<svg width="40" height="36" viewBox="0 0 40 36" fill="none" xmlns="http://www.w3.org/2000/svg">
<path fill-rule="evenodd" clip-rule="evenodd" d="M16 0H6V2H4V4H2V6H0V22H2V24H4V26H6V28H8V30H10V32H12V34H14V36H26V34H28V32H30V30H32V28H34V26H36V24H38V22H40V7H38V4H36V2H34V0H24V2H22V4H18V2H16V0ZM16 2V4H18V6H22V4H24V2H34V4H36V7H38V22H36V24H34V26H32V28H30V30H28V32H26V34H14V32H12V30H10V28H8V26H6V24H4V22H2V6H4V4H6V2H16ZM8 13H10V15H8V13ZM12 13H10V11H12V13ZM12 13H14V15H12V13ZM28 13H26V15H28V13ZM30 13V11H28V13H30ZM30 13V15H32V13H30ZM25 25H15V23H13V21H11V23H13V25H15V27H25V25ZM27 23V25H25V23H27ZM27 23V21H29V23H27Z" fill="white"/>
</svg>
