<svg width="40" height="36" viewBox="0 0 40 36" fill="none" xmlns="http://www.w3.org/2000/svg">
    <path fill-rule="evenodd" clip-rule="evenodd" d="M16 0H6V2H4V4H2V6H0V22H2V24H4V26H6V28H8V30H10V32H12V34H14V36H26V34H28V32H30V30H32V28H34V26H36V24H38V22H40V7H38V4H36V2H34V0H24V2H22V4H18V2H16V0ZM16 2V4H18V6H22V4H24V2H34V4H36V7H38V22H36V24H34V26H32V28H30V30H28V32H26V34H14V32H12V30H10V28H8V26H6V24H4V22H2V6H4V4H6V2H16ZM25 18H15V20H13V22H11V24H13V22H15V20H25V22H27V24H29V22H27V20H25V18ZM26 11H32V13H26V11ZM14 11H8V13H14V11Z" fill="white"/>
</svg>
